<?xml version="1.0" standalone="no"?>
<!DOCTYPE svg PUBLIC "-//W3C//DTD SVG 20010904//EN"
 "http://www.w3.org/TR/2001/REC-SVG-20010904/DTD/svg10.dtd">
<svg version="1.0" xmlns="http://www.w3.org/2000/svg"
 width="512.000000pt" height="512.000000pt" viewBox="0 0 512.000000 512.000000"
 preserveAspectRatio="xMidYMid meet">
<metadata>
Created by potrace 1.14, written by Peter Selinger 2001-2017
</metadata>
<g transform="translate(0.000000,512.000000) scale(0.100000,-0.100000)"
fill="#000000" stroke="none">
<path d="M140 3750 c0 -91 0 -2222 0 -2297 l0 -58 880 0 c484 0 880 2 881 5 0
3 1 132 2 287 1 181 -2 284 -8 286 -5 2 -252 4 -548 3 -295 -1 -538 1 -538 4
-1 3 -2 417 -3 920 l-2 915 -332 3 -332 2 0 -70z"/>
<path d="M1383 3813 c3 -5 32 -80 67 -168 34 -88 66 -169 71 -180 4 -11 33
-83 63 -160 151 -390 365 -937 376 -960 5 -11 32 -81 60 -155 29 -74 60 -154
71 -177 10 -24 19 -45 19 -48 0 -10 213 -550 221 -560 7 -10 544 -15 552 -5 2
3 28 66 57 140 29 74 58 149 65 165 7 17 45 113 85 215 40 102 78 199 85 215
7 17 20 52 30 78 l18 48 13 -28 c7 -15 61 -149 119 -298 58 -148 112 -283 119
-300 8 -16 31 -73 51 -125 20 -52 41 -99 46 -105 9 -9 534 -15 548 -5 4 3 35
75 68 160 101 259 223 569 268 685 136 345 175 446 175 451 0 3 7 20 15 37 8
18 105 264 216 547 111 283 204 521 206 528 4 10 -69 12 -358 10 l-363 -3
-166 -530 c-92 -291 -179 -570 -194 -620 -52 -165 -98 -309 -130 -408 l-32
-98 -47 138 c-25 76 -64 189 -86 252 l-39 113 78 227 c111 324 311 902 317
918 4 11 -52 13 -301 13 l-305 0 -20 -67 c-62 -209 -163 -561 -166 -579 -3
-11 -11 -37 -18 -59 l-13 -38 -34 119 c-19 65 -35 121 -35 124 0 3 -32 116
-70 252 l-70 248 -306 0 -307 0 110 -322 c60 -178 148 -438 196 -579 l86 -256
-19 -64 c-10 -35 -21 -68 -25 -74 -3 -5 -30 -88 -60 -182 -30 -95 -58 -173
-61 -173 -5 0 -100 294 -274 850 -13 41 -56 176 -95 300 -39 124 -90 286 -113
360 l-43 135 -362 3 c-200 1 -361 -1 -359 -5z"/>
</g>
</svg>
